<svg xmlns="http://www.w3.org/2000/svg" viewBox="0 0 64 64">
  <!-- Glass body -->
  <path d="M12 14 L16 58 C16 60 18 62 22 62 L42 62 C46 62 48 60 48 58 L52 14 Z" fill="#f5a623" stroke="#d4920a" stroke-width="2"/>

  <!-- Beer foam -->
  <ellipse cx="32" cy="14" rx="20" ry="6" fill="#fff9e6" stroke="#e8d9a0" stroke-width="1"/>
  <circle cx="22" cy="10" r="4" fill="#ffffff"/>
  <circle cx="32" cy="8" r="5" fill="#ffffff"/>
  <circle cx="42" cy="10" r="4" fill="#ffffff"/>
  <circle cx="27" cy="12" r="3" fill="#fffef5"/>
  <circle cx="37" cy="11" r="3" fill="#fffef5"/>

  <!-- Glass highlight -->
  <path d="M18 20 L20 52 C20 53 20 54 22 54 L24 54 L22 20 Z" fill="rgba(255,255,255,0.3)"/>

  <!-- Bubbles -->
  <circle cx="26" cy="35" r="2" fill="rgba(255,255,255,0.5)"/>
  <circle cx="38" cy="42" r="1.5" fill="rgba(255,255,255,0.5)"/>
  <circle cx="30" cy="48" r="2" fill="rgba(255,255,255,0.4)"/>
  <circle cx="42" cy="30" r="1.5" fill="rgba(255,255,255,0.4)"/>
  <circle cx="24" cy="52" r="1" fill="rgba(255,255,255,0.4)"/>

  <!-- Handle -->
  <path d="M52 20 C60 20 62 26 62 32 C62 38 60 44 52 44" fill="none" stroke="#d4920a" stroke-width="4" stroke-linecap="round"/>
  <path d="M52 22 C58 22 60 27 60 32 C60 37 58 42 52 42" fill="none" stroke="#f5a623" stroke-width="2" stroke-linecap="round"/>
</svg>
